<mxfile host="app.diagrams.net" modified="2020-08-31T02:42:57.978Z" agent="5.0 (Macintosh; Intel Mac OS X 10_15_4) AppleWebKit/537.36 (KHTML, like Gecko) Chrome/84.0.4147.89 Safari/537.36" etag="pwfPxqRZDycRWBi2k4lk" version="13.5.8" type="github">
  <diagram id="JxGsLD0PLWoo0bPlVv-O" name="第 1 页">
    <mxGraphModel dx="1426" dy="722" grid="1" gridSize="10" guides="1" tooltips="1" connect="1" arrows="1" fold="1" page="1" pageScale="1" pageWidth="827" pageHeight="1169" math="0" shadow="0">
      <root>
        <mxCell id="0" />
        <mxCell id="1" parent="0" />
        <mxCell id="uHbOej7GVt9hgyqqJOEO-14" value="" style="rounded=0;whiteSpace=wrap;html=1;" parent="1" vertex="1">
          <mxGeometry x="20" y="180" width="780" height="2540" as="geometry" />
        </mxCell>
        <mxCell id="uHbOej7GVt9hgyqqJOEO-15" value="组件架构" style="text;html=1;strokeColor=none;fillColor=none;align=center;verticalAlign=middle;whiteSpace=wrap;rounded=0;fontStyle=1;fontSize=16;" parent="1" vertex="1">
          <mxGeometry x="374" y="183" width="80" height="20" as="geometry" />
        </mxCell>
        <mxCell id="uHbOej7GVt9hgyqqJOEO-63" value="" style="verticalLabelPosition=bottom;verticalAlign=top;html=1;shape=mxgraph.basic.rect;fillColor2=none;strokeWidth=1;size=20;indent=5;fontSize=16;fillColor=#dae8fc;strokeColor=#6c8ebf;" parent="1" vertex="1">
          <mxGeometry x="30" y="1040" width="760" height="860" as="geometry" />
        </mxCell>
        <mxCell id="uHbOej7GVt9hgyqqJOEO-64" value="player" style="swimlane;fontSize=16;html=0;fillColor=#0050ef;strokeColor=#001DBC;fontColor=#ffffff;" parent="1" vertex="1">
          <mxGeometry x="39.5" y="1080" width="350.5" height="90" as="geometry">
            <mxRectangle x="39.5" y="990" width="80" height="23" as="alternateBounds" />
          </mxGeometry>
        </mxCell>
        <mxCell id="uHbOej7GVt9hgyqqJOEO-66" value="media" style="shape=module;align=left;spacingLeft=20;align=center;verticalAlign=middle;fontSize=16;html=0;fillColor=#1ba1e2;strokeColor=#006EAF;fontColor=#ffffff;" parent="uHbOej7GVt9hgyqqJOEO-64" vertex="1">
          <mxGeometry x="10.5" y="30" width="100" height="50" as="geometry" />
        </mxCell>
        <mxCell id="uHbOej7GVt9hgyqqJOEO-67" value="danmaku" style="shape=module;align=left;spacingLeft=20;align=center;verticalAlign=middle;fontSize=16;html=0;fillColor=#1ba1e2;strokeColor=#006EAF;fontColor=#ffffff;" parent="uHbOej7GVt9hgyqqJOEO-64" vertex="1">
          <mxGeometry x="120.5" y="30" width="100" height="50" as="geometry" />
        </mxCell>
        <mxCell id="uHbOej7GVt9hgyqqJOEO-68" value="window" style="shape=module;align=left;spacingLeft=20;align=center;verticalAlign=middle;fontSize=16;html=0;fillColor=#1ba1e2;strokeColor=#006EAF;fontColor=#ffffff;" parent="uHbOej7GVt9hgyqqJOEO-64" vertex="1">
          <mxGeometry x="230.5" y="30" width="100" height="50" as="geometry" />
        </mxCell>
        <mxCell id="uHbOej7GVt9hgyqqJOEO-65" value="功能组件库" style="text;html=1;strokeColor=none;fillColor=none;align=center;verticalAlign=middle;whiteSpace=wrap;rounded=0;fontSize=16;" parent="1" vertex="1">
          <mxGeometry x="39.5" y="1050" width="90.5" height="20" as="geometry" />
        </mxCell>
        <mxCell id="uHbOej7GVt9hgyqqJOEO-69" value="Download" style="swimlane;fontSize=16;html=0;fillColor=#0050ef;strokeColor=#001DBC;fontColor=#FFFFFF;" parent="1" vertex="1">
          <mxGeometry x="419.5" y="1080" width="350.5" height="150" as="geometry">
            <mxRectangle x="419.5" y="990" width="110" height="23" as="alternateBounds" />
          </mxGeometry>
        </mxCell>
        <mxCell id="uHbOej7GVt9hgyqqJOEO-70" value="cache" style="shape=module;align=left;spacingLeft=20;align=center;verticalAlign=middle;fontSize=16;html=0;fillColor=#1ba1e2;strokeColor=#006EAF;fontColor=#ffffff;" parent="uHbOej7GVt9hgyqqJOEO-69" vertex="1">
          <mxGeometry x="10.5" y="30" width="100" height="50" as="geometry" />
        </mxCell>
        <mxCell id="uHbOej7GVt9hgyqqJOEO-71" value="task" style="shape=module;align=left;spacingLeft=20;align=center;verticalAlign=middle;fontSize=16;html=0;fillColor=#1ba1e2;strokeColor=#006EAF;fontColor=#ffffff;" parent="uHbOej7GVt9hgyqqJOEO-69" vertex="1">
          <mxGeometry x="120.5" y="30" width="100" height="50" as="geometry" />
        </mxCell>
        <mxCell id="uHbOej7GVt9hgyqqJOEO-72" value="m3u8" style="shape=module;align=left;spacingLeft=20;align=center;verticalAlign=middle;fontSize=16;html=0;fillColor=#1ba1e2;strokeColor=#006EAF;fontColor=#ffffff;" parent="uHbOej7GVt9hgyqqJOEO-69" vertex="1">
          <mxGeometry x="230.5" y="30" width="100" height="50" as="geometry" />
        </mxCell>
        <mxCell id="uHbOej7GVt9hgyqqJOEO-73" value="manager" style="shape=module;align=left;spacingLeft=20;align=center;verticalAlign=middle;fontSize=16;fontColor=#ffffff;html=0;fillColor=#1ba1e2;strokeColor=#006EAF;" parent="uHbOej7GVt9hgyqqJOEO-69" vertex="1">
          <mxGeometry x="10.5" y="90" width="100" height="50" as="geometry" />
        </mxCell>
        <mxCell id="uHbOej7GVt9hgyqqJOEO-74" value="network" style="shape=module;align=left;spacingLeft=20;align=center;verticalAlign=middle;fontSize=16;fontColor=#ffffff;html=0;fillColor=#1ba1e2;strokeColor=#006EAF;" parent="uHbOej7GVt9hgyqqJOEO-69" vertex="1">
          <mxGeometry x="120.5" y="90" width="100" height="50" as="geometry" />
        </mxCell>
        <mxCell id="uHbOej7GVt9hgyqqJOEO-75" value="config" style="shape=module;align=left;spacingLeft=20;align=center;verticalAlign=middle;fontSize=16;fontColor=#ffffff;html=0;fillColor=#1ba1e2;strokeColor=#006EAF;" parent="uHbOej7GVt9hgyqqJOEO-69" vertex="1">
          <mxGeometry x="230.5" y="90" width="100" height="50" as="geometry" />
        </mxCell>
        <mxCell id="uHbOej7GVt9hgyqqJOEO-76" value="push flow" style="swimlane;fontSize=16;fontColor=#ffffff;html=0;fillColor=#0050ef;strokeColor=#001DBC;" parent="1" vertex="1">
          <mxGeometry x="419.5" y="1240" width="350.5" height="230" as="geometry" />
        </mxCell>
        <mxCell id="uHbOej7GVt9hgyqqJOEO-77" value="rtmp" style="shape=module;align=left;spacingLeft=20;align=center;verticalAlign=middle;fontSize=16;fontColor=#ffffff;html=0;fillColor=#1ba1e2;strokeColor=#006EAF;" parent="uHbOej7GVt9hgyqqJOEO-76" vertex="1">
          <mxGeometry x="10" y="40" width="100" height="50" as="geometry" />
        </mxCell>
        <mxCell id="uHbOej7GVt9hgyqqJOEO-78" value="client" style="shape=module;align=left;spacingLeft=20;align=center;verticalAlign=middle;fontSize=16;fontColor=#ffffff;html=0;fillColor=#1ba1e2;strokeColor=#006EAF;" parent="uHbOej7GVt9hgyqqJOEO-76" vertex="1">
          <mxGeometry x="120" y="40" width="100" height="50" as="geometry" />
        </mxCell>
        <mxCell id="uHbOej7GVt9hgyqqJOEO-79" value="core" style="shape=module;align=left;spacingLeft=20;align=center;verticalAlign=middle;fontSize=16;fontColor=#ffffff;html=0;fillColor=#1ba1e2;strokeColor=#006EAF;" parent="uHbOej7GVt9hgyqqJOEO-76" vertex="1">
          <mxGeometry x="230" y="40" width="100" height="50" as="geometry" />
        </mxCell>
        <mxCell id="uHbOej7GVt9hgyqqJOEO-80" value="encoder" style="shape=module;align=left;spacingLeft=20;align=center;verticalAlign=middle;fontSize=16;fontColor=#ffffff;html=0;fillColor=#1ba1e2;strokeColor=#006EAF;" parent="uHbOej7GVt9hgyqqJOEO-76" vertex="1">
          <mxGeometry x="10" y="110" width="100" height="50" as="geometry" />
        </mxCell>
        <mxCell id="uHbOej7GVt9hgyqqJOEO-81" value="filter" style="shape=module;align=left;spacingLeft=20;align=center;verticalAlign=middle;fontSize=16;fontColor=#ffffff;html=0;fillColor=#1ba1e2;strokeColor=#006EAF;" parent="uHbOej7GVt9hgyqqJOEO-76" vertex="1">
          <mxGeometry x="120" y="110" width="100" height="50" as="geometry" />
        </mxCell>
        <mxCell id="uHbOej7GVt9hgyqqJOEO-82" value="render" style="shape=module;align=left;spacingLeft=20;align=center;verticalAlign=middle;fontSize=16;fontColor=#ffffff;html=0;fillColor=#1ba1e2;strokeColor=#006EAF;" parent="uHbOej7GVt9hgyqqJOEO-76" vertex="1">
          <mxGeometry x="230" y="110" width="100" height="50" as="geometry" />
        </mxCell>
        <mxCell id="uHbOej7GVt9hgyqqJOEO-83" value="manager" style="shape=module;align=left;spacingLeft=20;align=center;verticalAlign=middle;fontSize=16;fontColor=#ffffff;html=0;fillColor=#1ba1e2;strokeColor=#006EAF;" parent="uHbOej7GVt9hgyqqJOEO-76" vertex="1">
          <mxGeometry x="10" y="170" width="100" height="50" as="geometry" />
        </mxCell>
        <mxCell id="uHbOej7GVt9hgyqqJOEO-84" value="model" style="shape=module;align=left;spacingLeft=20;align=center;verticalAlign=middle;fontSize=16;fontColor=#ffffff;html=0;fillColor=#1ba1e2;strokeColor=#006EAF;" parent="uHbOej7GVt9hgyqqJOEO-76" vertex="1">
          <mxGeometry x="120" y="170" width="100" height="50" as="geometry" />
        </mxCell>
        <mxCell id="uHbOej7GVt9hgyqqJOEO-85" value="tools" style="shape=module;align=left;spacingLeft=20;align=center;verticalAlign=middle;fontSize=16;fontColor=#ffffff;html=0;fillColor=#1ba1e2;strokeColor=#006EAF;" parent="uHbOej7GVt9hgyqqJOEO-76" vertex="1">
          <mxGeometry x="230" y="170" width="100" height="50" as="geometry" />
        </mxCell>
        <mxCell id="uHbOej7GVt9hgyqqJOEO-86" value="DLNAlibrary" style="swimlane;fontSize=16;fontColor=#ffffff;html=0;fillColor=#0050ef;strokeColor=#001DBC;" parent="1" vertex="1">
          <mxGeometry x="39.5" y="1180" width="350" height="150" as="geometry">
            <mxRectangle x="39.5" y="1090" width="130" height="23" as="alternateBounds" />
          </mxGeometry>
        </mxCell>
        <mxCell id="uHbOej7GVt9hgyqqJOEO-87" value="database" style="shape=module;align=left;spacingLeft=20;align=center;verticalAlign=middle;fontSize=16;fontColor=#ffffff;html=0;fillColor=#1ba1e2;strokeColor=#006EAF;" parent="uHbOej7GVt9hgyqqJOEO-86" vertex="1">
          <mxGeometry x="10" y="30" width="100" height="50" as="geometry" />
        </mxCell>
        <mxCell id="uHbOej7GVt9hgyqqJOEO-88" value="service" style="shape=module;align=left;spacingLeft=20;align=center;verticalAlign=middle;fontSize=16;fontColor=#ffffff;html=0;fillColor=#1ba1e2;strokeColor=#006EAF;" parent="uHbOej7GVt9hgyqqJOEO-86" vertex="1">
          <mxGeometry x="120" y="30" width="100" height="50" as="geometry" />
        </mxCell>
        <mxCell id="uHbOej7GVt9hgyqqJOEO-89" value="callback" style="shape=module;align=left;spacingLeft=20;align=center;verticalAlign=middle;fontSize=16;fontColor=#ffffff;html=0;fillColor=#1ba1e2;strokeColor=#006EAF;" parent="uHbOej7GVt9hgyqqJOEO-86" vertex="1">
          <mxGeometry x="230" y="30" width="100" height="50" as="geometry" />
        </mxCell>
        <mxCell id="uHbOej7GVt9hgyqqJOEO-90" value="entity" style="shape=module;align=left;spacingLeft=20;align=center;verticalAlign=middle;fontSize=16;fontColor=#ffffff;html=0;fillColor=#1ba1e2;strokeColor=#006EAF;" parent="uHbOej7GVt9hgyqqJOEO-86" vertex="1">
          <mxGeometry x="10" y="90" width="100" height="50" as="geometry" />
        </mxCell>
        <mxCell id="uHbOej7GVt9hgyqqJOEO-91" value="event" style="shape=module;align=left;spacingLeft=20;align=center;verticalAlign=middle;fontSize=16;fontColor=#ffffff;html=0;fillColor=#1ba1e2;strokeColor=#006EAF;" parent="uHbOej7GVt9hgyqqJOEO-86" vertex="1">
          <mxGeometry x="120" y="90" width="100" height="50" as="geometry" />
        </mxCell>
        <mxCell id="uHbOej7GVt9hgyqqJOEO-92" value="manager" style="shape=module;align=left;spacingLeft=20;align=center;verticalAlign=middle;fontSize=16;fontColor=#ffffff;html=0;fillColor=#1ba1e2;strokeColor=#006EAF;" parent="uHbOej7GVt9hgyqqJOEO-86" vertex="1">
          <mxGeometry x="230" y="90" width="100" height="50" as="geometry" />
        </mxCell>
        <mxCell id="uHbOej7GVt9hgyqqJOEO-94" value="QR code" style="swimlane;fontSize=16;fontColor=#ffffff;html=0;fillColor=#0050ef;strokeColor=#001DBC;" parent="1" vertex="1">
          <mxGeometry x="40" y="1340" width="350" height="90" as="geometry" />
        </mxCell>
        <mxCell id="uHbOej7GVt9hgyqqJOEO-95" value="camera" style="shape=module;align=left;spacingLeft=20;align=center;verticalAlign=middle;fontSize=16;fontColor=#ffffff;html=0;fillColor=#1ba1e2;strokeColor=#006EAF;" parent="uHbOej7GVt9hgyqqJOEO-94" vertex="1">
          <mxGeometry x="10" y="30" width="100" height="50" as="geometry" />
        </mxCell>
        <mxCell id="uHbOej7GVt9hgyqqJOEO-96" value="de/encod" style="shape=module;align=left;spacingLeft=20;align=center;verticalAlign=middle;fontSize=16;fontColor=#ffffff;html=0;fillColor=#1ba1e2;strokeColor=#006EAF;" parent="uHbOej7GVt9hgyqqJOEO-94" vertex="1">
          <mxGeometry x="120" y="30" width="100" height="50" as="geometry" />
        </mxCell>
        <mxCell id="uHbOej7GVt9hgyqqJOEO-97" value="view" style="shape=module;align=left;spacingLeft=20;align=center;verticalAlign=middle;fontSize=16;fontColor=#ffffff;html=0;fillColor=#1ba1e2;strokeColor=#006EAF;" parent="uHbOej7GVt9hgyqqJOEO-94" vertex="1">
          <mxGeometry x="230" y="30" width="100" height="50" as="geometry" />
        </mxCell>
        <mxCell id="uHbOej7GVt9hgyqqJOEO-104" value="PhotoPicker" style="swimlane;fontSize=16;fontColor=#ffffff;html=0;fillColor=#0050ef;strokeColor=#001DBC;" parent="1" vertex="1">
          <mxGeometry x="420" y="1480" width="350" height="150" as="geometry" />
        </mxCell>
        <mxCell id="uHbOej7GVt9hgyqqJOEO-105" value="adapter" style="shape=module;align=left;spacingLeft=20;align=center;verticalAlign=middle;fontSize=16;fontColor=#ffffff;html=0;fillColor=#1ba1e2;strokeColor=#006EAF;" parent="uHbOej7GVt9hgyqqJOEO-104" vertex="1">
          <mxGeometry x="10" y="30" width="100" height="50" as="geometry" />
        </mxCell>
        <mxCell id="uHbOej7GVt9hgyqqJOEO-106" value="entity" style="shape=module;align=left;spacingLeft=20;align=center;verticalAlign=middle;fontSize=16;fontColor=#ffffff;html=0;fillColor=#1ba1e2;strokeColor=#006EAF;" parent="uHbOej7GVt9hgyqqJOEO-104" vertex="1">
          <mxGeometry x="120" y="30" width="100" height="50" as="geometry" />
        </mxCell>
        <mxCell id="uHbOej7GVt9hgyqqJOEO-107" value="event" style="shape=module;align=left;spacingLeft=20;align=center;verticalAlign=middle;fontSize=16;fontColor=#ffffff;html=0;fillColor=#1ba1e2;strokeColor=#006EAF;" parent="uHbOej7GVt9hgyqqJOEO-104" vertex="1">
          <mxGeometry x="230" y="30" width="100" height="50" as="geometry" />
        </mxCell>
        <mxCell id="uHbOej7GVt9hgyqqJOEO-108" value="fragment" style="shape=module;align=left;spacingLeft=20;align=center;verticalAlign=middle;fontSize=16;fontColor=#ffffff;html=0;fillColor=#1ba1e2;strokeColor=#006EAF;" parent="uHbOej7GVt9hgyqqJOEO-104" vertex="1">
          <mxGeometry x="10" y="90" width="100" height="50" as="geometry" />
        </mxCell>
        <mxCell id="uHbOej7GVt9hgyqqJOEO-109" value="utils" style="shape=module;align=left;spacingLeft=20;align=center;verticalAlign=middle;fontSize=16;fontColor=#ffffff;html=0;fillColor=#1ba1e2;strokeColor=#006EAF;" parent="uHbOej7GVt9hgyqqJOEO-104" vertex="1">
          <mxGeometry x="120" y="90" width="100" height="50" as="geometry" />
        </mxCell>
        <mxCell id="uHbOej7GVt9hgyqqJOEO-110" value="widget" style="shape=module;align=left;spacingLeft=20;align=center;verticalAlign=middle;fontSize=16;fontColor=#ffffff;html=0;fillColor=#1ba1e2;strokeColor=#006EAF;" parent="uHbOej7GVt9hgyqqJOEO-104" vertex="1">
          <mxGeometry x="230" y="90" width="100" height="50" as="geometry" />
        </mxCell>
        <mxCell id="uHbOej7GVt9hgyqqJOEO-111" value="OneSDK" style="swimlane;fontSize=16;fontColor=#ffffff;html=0;fillColor=#0050ef;strokeColor=#001DBC;" parent="1" vertex="1">
          <mxGeometry x="40" y="1440" width="350" height="90" as="geometry" />
        </mxCell>
        <mxCell id="uHbOej7GVt9hgyqqJOEO-112" value="libs" style="shape=module;align=left;spacingLeft=20;align=center;verticalAlign=middle;fontSize=16;fontColor=#ffffff;html=0;fillColor=#1ba1e2;strokeColor=#006EAF;" parent="uHbOej7GVt9hgyqqJOEO-111" vertex="1">
          <mxGeometry x="10" y="30" width="320" height="50" as="geometry" />
        </mxCell>
        <mxCell id="uHbOej7GVt9hgyqqJOEO-113" value="" style="rounded=0;whiteSpace=wrap;html=1;fontSize=16;fillColor=#d5e8d4;strokeColor=#82b366;" parent="1" vertex="1">
          <mxGeometry x="30" y="1910" width="760" height="800" as="geometry" />
        </mxCell>
        <mxCell id="uHbOej7GVt9hgyqqJOEO-114" value="业务组件" style="text;html=1;strokeColor=none;fillColor=none;align=center;verticalAlign=middle;whiteSpace=wrap;rounded=0;fontSize=16;fontColor=#000000;" parent="1" vertex="1">
          <mxGeometry x="40" y="1920" width="70" height="20" as="geometry" />
        </mxCell>
        <mxCell id="uHbOej7GVt9hgyqqJOEO-62" value="business" style="swimlane;fontSize=16;html=0;fillColor=#008a00;strokeColor=#005700;fontColor=#ffffff;" parent="1" vertex="1">
          <mxGeometry x="40" y="1940" width="740" height="760" as="geometry" />
        </mxCell>
        <mxCell id="uHbOej7GVt9hgyqqJOEO-115" value="Login" style="shape=umlFrame;whiteSpace=wrap;html=1;fontSize=16;fontColor=#ffffff;width=100;height=30;fillColor=#008a00;strokeColor=#005700;" parent="uHbOej7GVt9hgyqqJOEO-62" vertex="1">
          <mxGeometry x="10.5" y="40" width="229.5" height="170" as="geometry" />
        </mxCell>
        <mxCell id="uHbOej7GVt9hgyqqJOEO-116" value="monitor" style="shape=module;align=left;spacingLeft=20;align=center;verticalAlign=middle;fontSize=16;fontColor=#ffffff;html=0;fillColor=#60a917;strokeColor=#2D7600;" parent="uHbOej7GVt9hgyqqJOEO-62" vertex="1">
          <mxGeometry x="20.5" y="80" width="100" height="50" as="geometry" />
        </mxCell>
        <mxCell id="uHbOej7GVt9hgyqqJOEO-117" value="model" style="shape=module;align=left;spacingLeft=20;align=center;verticalAlign=middle;fontSize=16;fontColor=#ffffff;html=0;fillColor=#60a917;strokeColor=#2D7600;" parent="uHbOej7GVt9hgyqqJOEO-62" vertex="1">
          <mxGeometry x="130.25" y="80" width="100" height="50" as="geometry" />
        </mxCell>
        <mxCell id="uHbOej7GVt9hgyqqJOEO-118" value="presenter" style="shape=module;align=left;spacingLeft=20;align=center;verticalAlign=middle;fontSize=16;fontColor=#ffffff;html=0;fillColor=#60a917;strokeColor=#2D7600;" parent="uHbOej7GVt9hgyqqJOEO-62" vertex="1">
          <mxGeometry x="20.5" y="149" width="100" height="50" as="geometry" />
        </mxCell>
        <mxCell id="uHbOej7GVt9hgyqqJOEO-119" value="view" style="shape=module;align=left;spacingLeft=20;align=center;verticalAlign=middle;fontSize=16;fontColor=#ffffff;html=0;fillColor=#60a917;strokeColor=#2D7600;" parent="uHbOej7GVt9hgyqqJOEO-62" vertex="1">
          <mxGeometry x="130.25" y="149" width="100" height="50" as="geometry" />
        </mxCell>
        <mxCell id="uHbOej7GVt9hgyqqJOEO-120" value="chat" style="shape=umlFrame;whiteSpace=wrap;html=1;fontSize=16;fontColor=#ffffff;fillColor=#008a00;strokeColor=#005700;" parent="uHbOej7GVt9hgyqqJOEO-62" vertex="1">
          <mxGeometry x="250.5" y="40" width="229.5" height="170" as="geometry" />
        </mxCell>
        <mxCell id="uHbOej7GVt9hgyqqJOEO-121" value="model" style="shape=module;align=left;spacingLeft=20;align=center;verticalAlign=middle;fontSize=16;fontColor=#ffffff;html=0;fillColor=#60a917;strokeColor=#2D7600;" parent="uHbOej7GVt9hgyqqJOEO-62" vertex="1">
          <mxGeometry x="260.5" y="80" width="100" height="50" as="geometry" />
        </mxCell>
        <mxCell id="uHbOej7GVt9hgyqqJOEO-122" value="presenter" style="shape=module;align=left;spacingLeft=20;align=center;verticalAlign=middle;fontSize=16;fontColor=#ffffff;html=0;fillColor=#60a917;strokeColor=#2D7600;" parent="uHbOej7GVt9hgyqqJOEO-62" vertex="1">
          <mxGeometry x="260.5" y="150" width="100" height="50" as="geometry" />
        </mxCell>
        <mxCell id="uHbOej7GVt9hgyqqJOEO-123" value="view" style="shape=module;align=left;spacingLeft=20;align=center;verticalAlign=middle;fontSize=16;fontColor=#ffffff;html=0;fillColor=#60a917;strokeColor=#2D7600;" parent="uHbOej7GVt9hgyqqJOEO-62" vertex="1">
          <mxGeometry x="370.5" y="80" width="100" height="50" as="geometry" />
        </mxCell>
        <mxCell id="uHbOej7GVt9hgyqqJOEO-124" value="pay" style="shape=umlFrame;whiteSpace=wrap;html=1;fontSize=16;fontColor=#ffffff;fillColor=#008a00;strokeColor=#005700;" parent="uHbOej7GVt9hgyqqJOEO-62" vertex="1">
          <mxGeometry x="490.5" y="40" width="229.5" height="170" as="geometry" />
        </mxCell>
        <mxCell id="uHbOej7GVt9hgyqqJOEO-128" value="share&amp;amp;statistics&lt;ul class=&quot;word-list&quot; id=&quot;etcTransUL&quot; style=&quot;padding: 0px ; margin: -16px 0px -4px ; list-style: none ; font-family: &amp;#34;stheiti&amp;#34; ; font-size: 13px&quot;&gt;&lt;li style=&quot;line-height: 20px ; margin-bottom: 6px&quot;&gt;&lt;br&gt;&lt;/li&gt;&lt;/ul&gt;" style="shape=umlFrame;whiteSpace=wrap;html=1;fontSize=16;fontColor=#ffffff;width=120;height=30;fillColor=#008a00;strokeColor=#005700;" parent="uHbOej7GVt9hgyqqJOEO-62" vertex="1">
          <mxGeometry x="10.5" y="220" width="229.5" height="170" as="geometry" />
        </mxCell>
        <mxCell id="uHbOej7GVt9hgyqqJOEO-127" value="view" style="shape=module;align=left;spacingLeft=20;align=center;verticalAlign=middle;fontSize=16;fontColor=#ffffff;html=0;fillColor=#60a917;strokeColor=#2D7600;" parent="uHbOej7GVt9hgyqqJOEO-62" vertex="1">
          <mxGeometry x="610" y="80" width="100" height="50" as="geometry" />
        </mxCell>
        <mxCell id="uHbOej7GVt9hgyqqJOEO-132" value="系统消息" style="shape=umlFrame;whiteSpace=wrap;html=1;fontSize=16;fontColor=#ffffff;fillColor=#008a00;strokeColor=#005700;width=80;height=30;" parent="uHbOej7GVt9hgyqqJOEO-62" vertex="1">
          <mxGeometry x="250" y="220" width="230" height="170" as="geometry" />
        </mxCell>
        <mxCell id="uHbOej7GVt9hgyqqJOEO-136" value="验证码" style="shape=umlFrame;whiteSpace=wrap;html=1;fontSize=16;fontColor=#ffffff;width=69;height=30;fillColor=#008a00;strokeColor=#005700;" parent="uHbOej7GVt9hgyqqJOEO-62" vertex="1">
          <mxGeometry x="491" y="220" width="229" height="170" as="geometry" />
        </mxCell>
        <mxCell id="PPBr_-F9Wo5qHncoaiO5-14" value="图片上传" style="shape=umlFrame;whiteSpace=wrap;html=1;width=79;height=30;fontSize=16;fillColor=#008a00;strokeColor=#005700;fontColor=#ffffff;" parent="uHbOej7GVt9hgyqqJOEO-62" vertex="1">
          <mxGeometry x="11" y="580" width="229" height="170" as="geometry" />
        </mxCell>
        <mxCell id="PPBr_-F9Wo5qHncoaiO5-15" value="model" style="shape=module;align=left;spacingLeft=20;align=center;verticalAlign=middle;fontSize=16;fontColor=#ffffff;html=0;fillColor=#60a917;strokeColor=#2D7600;" parent="uHbOej7GVt9hgyqqJOEO-62" vertex="1">
          <mxGeometry x="20.25" y="620" width="100" height="50" as="geometry" />
        </mxCell>
        <mxCell id="PPBr_-F9Wo5qHncoaiO5-16" value="presenter" style="shape=module;align=left;spacingLeft=20;align=center;verticalAlign=middle;fontSize=16;fontColor=#ffffff;html=0;fillColor=#60a917;strokeColor=#2D7600;" parent="uHbOej7GVt9hgyqqJOEO-62" vertex="1">
          <mxGeometry x="130.25" y="620" width="100" height="50" as="geometry" />
        </mxCell>
        <mxCell id="uHbOej7GVt9hgyqqJOEO-125" value="model" style="shape=module;align=left;spacingLeft=20;align=center;verticalAlign=middle;fontSize=16;fontColor=#ffffff;html=0;fillColor=#60a917;strokeColor=#2D7600;" parent="1" vertex="1">
          <mxGeometry x="550" y="2020" width="100" height="50" as="geometry" />
        </mxCell>
        <mxCell id="uHbOej7GVt9hgyqqJOEO-126" value="presenter" style="shape=module;align=left;spacingLeft=20;align=center;verticalAlign=middle;fontSize=16;fontColor=#ffffff;html=0;fillColor=#60a917;strokeColor=#2D7600;" parent="1" vertex="1">
          <mxGeometry x="550" y="2090" width="100" height="50" as="geometry" />
        </mxCell>
        <mxCell id="uHbOej7GVt9hgyqqJOEO-129" value="model" style="shape=module;align=left;spacingLeft=20;align=center;verticalAlign=middle;fontSize=16;fontColor=#ffffff;html=0;fillColor=#60a917;strokeColor=#2D7600;" parent="1" vertex="1">
          <mxGeometry x="60" y="2200" width="100" height="50" as="geometry" />
        </mxCell>
        <mxCell id="uHbOej7GVt9hgyqqJOEO-130" value="presenter" style="shape=module;align=left;spacingLeft=20;align=center;verticalAlign=middle;fontSize=16;fontColor=#ffffff;html=0;fillColor=#60a917;strokeColor=#2D7600;" parent="1" vertex="1">
          <mxGeometry x="60" y="2270" width="100" height="50" as="geometry" />
        </mxCell>
        <mxCell id="uHbOej7GVt9hgyqqJOEO-131" value="view" style="shape=module;align=left;spacingLeft=20;align=center;verticalAlign=middle;fontSize=16;fontColor=#ffffff;html=0;fillColor=#60a917;strokeColor=#2D7600;" parent="1" vertex="1">
          <mxGeometry x="170" y="2200" width="100" height="50" as="geometry" />
        </mxCell>
        <mxCell id="uHbOej7GVt9hgyqqJOEO-133" value="model" style="shape=module;align=left;spacingLeft=20;align=center;verticalAlign=middle;fontSize=16;fontColor=#ffffff;html=0;fillColor=#60a917;strokeColor=#2D7600;" parent="1" vertex="1">
          <mxGeometry x="299.5" y="2200" width="100" height="50" as="geometry" />
        </mxCell>
        <mxCell id="uHbOej7GVt9hgyqqJOEO-134" value="presenter" style="shape=module;align=left;spacingLeft=20;align=center;verticalAlign=middle;fontSize=16;fontColor=#ffffff;html=0;fillColor=#60a917;strokeColor=#2D7600;" parent="1" vertex="1">
          <mxGeometry x="299.5" y="2270" width="100" height="50" as="geometry" />
        </mxCell>
        <mxCell id="uHbOej7GVt9hgyqqJOEO-135" value="view" style="shape=module;align=left;spacingLeft=20;align=center;verticalAlign=middle;fontSize=16;fontColor=#ffffff;html=0;fillColor=#60a917;strokeColor=#2D7600;" parent="1" vertex="1">
          <mxGeometry x="409.5" y="2200" width="100" height="50" as="geometry" />
        </mxCell>
        <mxCell id="uHbOej7GVt9hgyqqJOEO-137" value="model" style="shape=module;align=left;spacingLeft=20;align=center;verticalAlign=middle;fontSize=16;fontColor=#ffffff;html=0;fillColor=#60a917;strokeColor=#2D7600;" parent="1" vertex="1">
          <mxGeometry x="540" y="2200" width="100" height="50" as="geometry" />
        </mxCell>
        <mxCell id="uHbOej7GVt9hgyqqJOEO-138" value="presenter" style="shape=module;align=left;spacingLeft=20;align=center;verticalAlign=middle;fontSize=16;fontColor=#ffffff;html=0;fillColor=#60a917;strokeColor=#2D7600;" parent="1" vertex="1">
          <mxGeometry x="650" y="2200" width="100" height="50" as="geometry" />
        </mxCell>
        <mxCell id="uHbOej7GVt9hgyqqJOEO-139" value="meeting" style="swimlane;fontSize=16;fontColor=#ffffff;html=0;fillColor=#0050ef;strokeColor=#001DBC;" parent="1" vertex="1">
          <mxGeometry x="40" y="1540" width="350" height="110" as="geometry" />
        </mxCell>
        <mxCell id="uHbOej7GVt9hgyqqJOEO-140" value="待确定是否使用zoom" style="shape=note;size=20;whiteSpace=wrap;html=1;fontSize=16;fontColor=#000000;" parent="uHbOej7GVt9hgyqqJOEO-139" vertex="1">
          <mxGeometry x="125" y="26" width="100" height="74" as="geometry" />
        </mxCell>
        <mxCell id="uHbOej7GVt9hgyqqJOEO-142" value="" style="rounded=0;whiteSpace=wrap;html=1;fontSize=16;fillColor=#f8cecc;strokeColor=#b85450;" parent="1" vertex="1">
          <mxGeometry x="30" y="210" width="760" height="820" as="geometry" />
        </mxCell>
        <mxCell id="uHbOej7GVt9hgyqqJOEO-21" value="module" style="shape=umlFrame;whiteSpace=wrap;html=1;fontSize=16;width=120;height=30;fillColor=#a20025;strokeColor=#6F0000;fontColor=#ffffff;" parent="1" vertex="1">
          <mxGeometry x="49.75" y="740" width="720" height="270" as="geometry" />
        </mxCell>
        <mxCell id="uHbOej7GVt9hgyqqJOEO-23" value="Activity&#xa;ViewController" style="shape=module;align=left;spacingLeft=20;align=center;verticalAlign=middle;fontSize=16;whiteSpace=wrap;fillColor=#d80073;strokeColor=#A50040;fontColor=#ffffff;" parent="1" vertex="1">
          <mxGeometry x="69.75" y="790" width="120" height="90" as="geometry" />
        </mxCell>
        <mxCell id="uHbOej7GVt9hgyqqJOEO-33" value="layout" style="shape=module;align=left;spacingLeft=20;align=center;verticalAlign=middle;fontSize=16;fillColor=#d80073;strokeColor=#A50040;fontColor=#ffffff;" parent="1" vertex="1">
          <mxGeometry x="209.75" y="790" width="120" height="90" as="geometry" />
        </mxCell>
        <mxCell id="uHbOej7GVt9hgyqqJOEO-38" value="Subcontrol&#xa;Fragment" style="shape=module;align=left;spacingLeft=20;align=center;verticalAlign=middle;fontSize=16;fillColor=#d80073;strokeColor=#A50040;fontColor=#ffffff;" parent="1" vertex="1">
          <mxGeometry x="349.25" y="790" width="121" height="90" as="geometry" />
        </mxCell>
        <mxCell id="uHbOej7GVt9hgyqqJOEO-41" value="" style="endArrow=none;html=1;rounded=0;fontSize=16;exitX=0;exitY=0.5;exitDx=10;exitDy=0;exitPerimeter=0;entryX=1;entryY=0.5;entryDx=0;entryDy=0;fillColor=#d80073;strokeColor=#A50040;" parent="1" source="uHbOej7GVt9hgyqqJOEO-23" target="uHbOej7GVt9hgyqqJOEO-23" edge="1">
          <mxGeometry relative="1" as="geometry">
            <mxPoint x="69.75" y="530" as="sourcePoint" />
            <mxPoint x="179.75" y="530" as="targetPoint" />
          </mxGeometry>
        </mxCell>
        <mxCell id="uHbOej7GVt9hgyqqJOEO-42" value="" style="endArrow=none;html=1;rounded=0;fontSize=16;entryX=1;entryY=0.5;entryDx=0;entryDy=0;exitX=0;exitY=0.5;exitDx=10;exitDy=0;exitPerimeter=0;fillColor=#d80073;strokeColor=#A50040;" parent="1" source="uHbOej7GVt9hgyqqJOEO-38" target="uHbOej7GVt9hgyqqJOEO-38" edge="1">
          <mxGeometry relative="1" as="geometry">
            <mxPoint x="339.25" y="540" as="sourcePoint" />
            <mxPoint x="439.25" y="540" as="targetPoint" />
          </mxGeometry>
        </mxCell>
        <mxCell id="uHbOej7GVt9hgyqqJOEO-43" value="adapter&#xa;cell" style="shape=module;align=left;spacingLeft=20;align=center;verticalAlign=middle;fontSize=16;html=0;fillColor=#d80073;strokeColor=#A50040;fontColor=#ffffff;" parent="1" vertex="1">
          <mxGeometry x="489.75" y="790" width="120" height="90" as="geometry" />
        </mxCell>
        <mxCell id="uHbOej7GVt9hgyqqJOEO-44" value="" style="endArrow=none;html=1;rounded=0;fontSize=16;exitX=0;exitY=0.5;exitDx=10;exitDy=0;exitPerimeter=0;entryX=1;entryY=0.5;entryDx=0;entryDy=0;fillColor=#d80073;strokeColor=#A50040;" parent="1" edge="1">
          <mxGeometry relative="1" as="geometry">
            <mxPoint x="499.75" y="835" as="sourcePoint" />
            <mxPoint x="609.75" y="835" as="targetPoint" />
          </mxGeometry>
        </mxCell>
        <mxCell id="uHbOej7GVt9hgyqqJOEO-45" value="presenter" style="shape=module;align=left;spacingLeft=20;align=center;verticalAlign=middle;fontSize=16;html=0;fillColor=#d80073;strokeColor=#A50040;fontColor=#ffffff;" parent="1" vertex="1">
          <mxGeometry x="629.75" y="790" width="120" height="90" as="geometry" />
        </mxCell>
        <mxCell id="uHbOej7GVt9hgyqqJOEO-47" value="&lt;p style=&quot;margin: 6px 0px 0px ; text-align: center&quot;&gt;&lt;b&gt;model&lt;/b&gt;&lt;/p&gt;&lt;hr&gt;&lt;p style=&quot;margin: 0px 0px 0px 8px&quot;&gt;+ business&lt;br&gt;+ model/dto&lt;/p&gt;" style="align=left;overflow=fill;html=1;dropTarget=0;fontSize=16;fillColor=#d80073;strokeColor=#A50040;fontColor=#ffffff;" parent="1" vertex="1">
          <mxGeometry x="299.25" y="900" width="180" height="90" as="geometry" />
        </mxCell>
        <mxCell id="uHbOej7GVt9hgyqqJOEO-48" value="" style="shape=component;jettyWidth=8;jettyHeight=4;fillColor=#d80073;strokeColor=#A50040;fontColor=#ffffff;" parent="uHbOej7GVt9hgyqqJOEO-47" vertex="1">
          <mxGeometry x="1" width="20" height="20" relative="1" as="geometry">
            <mxPoint x="-24" y="4" as="offset" />
          </mxGeometry>
        </mxCell>
        <mxCell id="uHbOej7GVt9hgyqqJOEO-49" value="application&#xa;AppDelegate" style="shape=module;align=left;spacingLeft=20;align=center;verticalAlign=middle;fontSize=16;html=0;fillColor=#d80073;strokeColor=#A50040;fontColor=#ffffff;" parent="1" vertex="1">
          <mxGeometry x="69.75" y="900" width="220" height="90" as="geometry" />
        </mxCell>
        <mxCell id="uHbOej7GVt9hgyqqJOEO-50" value="" style="endArrow=none;html=1;rounded=0;fontSize=16;entryX=1;entryY=0.5;entryDx=0;entryDy=0;exitX=0;exitY=0.5;exitDx=10;exitDy=0;exitPerimeter=0;fillColor=#d80073;strokeColor=#A50040;" parent="1" source="uHbOej7GVt9hgyqqJOEO-49" target="uHbOej7GVt9hgyqqJOEO-49" edge="1">
          <mxGeometry relative="1" as="geometry">
            <mxPoint x="269.75" y="650" as="sourcePoint" />
            <mxPoint x="429.75" y="650" as="targetPoint" />
            <Array as="points" />
          </mxGeometry>
        </mxCell>
        <mxCell id="uHbOej7GVt9hgyqqJOEO-53" value="wrap" style="shape=umlFrame;whiteSpace=wrap;html=1;fontSize=16;width=110;height=30;fillColor=#a20025;strokeColor=#6F0000;fontColor=#ffffff;" parent="1" vertex="1">
          <mxGeometry x="50" y="510" width="720" height="220" as="geometry" />
        </mxCell>
        <mxCell id="uHbOej7GVt9hgyqqJOEO-54" value="network" style="shape=module;align=left;spacingLeft=20;align=center;verticalAlign=middle;fontSize=16;html=0;fillColor=#d80073;strokeColor=#A50040;fontColor=#ffffff;" parent="1" vertex="1">
          <mxGeometry x="60" y="560" width="100" height="50" as="geometry" />
        </mxCell>
        <mxCell id="uHbOej7GVt9hgyqqJOEO-55" value="cache" style="shape=module;align=left;spacingLeft=20;align=center;verticalAlign=middle;fontSize=16;html=0;fillColor=#d80073;strokeColor=#A50040;fontColor=#ffffff;" parent="1" vertex="1">
          <mxGeometry x="179.5" y="560" width="100" height="50" as="geometry" />
        </mxCell>
        <mxCell id="uHbOej7GVt9hgyqqJOEO-56" value="database" style="shape=module;align=left;spacingLeft=20;align=center;verticalAlign=middle;fontSize=16;html=0;fillColor=#d80073;strokeColor=#A50040;fontColor=#ffffff;" parent="1" vertex="1">
          <mxGeometry x="299.5" y="560" width="100" height="50" as="geometry" />
        </mxCell>
        <mxCell id="uHbOej7GVt9hgyqqJOEO-57" value="exception" style="shape=module;align=left;spacingLeft=20;align=center;verticalAlign=middle;fontSize=16;html=0;fillColor=#d80073;strokeColor=#A50040;fontColor=#ffffff;" parent="1" vertex="1">
          <mxGeometry x="419.5" y="560" width="100" height="50" as="geometry" />
        </mxCell>
        <mxCell id="uHbOej7GVt9hgyqqJOEO-58" value="frame" style="shape=umlFrame;whiteSpace=wrap;html=1;fontSize=16;fillColor=#a20025;strokeColor=#6F0000;fontColor=#ffffff;" parent="1" vertex="1">
          <mxGeometry x="49.5" y="290" width="720.5" height="210" as="geometry" />
        </mxCell>
        <mxCell id="uHbOej7GVt9hgyqqJOEO-18" value="network" style="shape=module;align=left;spacingLeft=20;align=center;verticalAlign=middle;fontSize=16;spacingBottom=0;spacingTop=0;fillColor=#d80073;strokeColor=#A50040;fontColor=#ffffff;" parent="1" vertex="1">
          <mxGeometry x="60" y="350" width="100" height="50" as="geometry" />
        </mxCell>
        <mxCell id="uHbOej7GVt9hgyqqJOEO-19" value="Task" style="shape=module;align=left;spacingLeft=20;align=center;verticalAlign=middle;fontSize=16;spacingBottom=0;spacingTop=0;fillColor=#d80073;strokeColor=#A50040;fontColor=#ffffff;" parent="1" vertex="1">
          <mxGeometry x="179.5" y="350" width="100" height="50" as="geometry" />
        </mxCell>
        <mxCell id="uHbOej7GVt9hgyqqJOEO-22" value="Imager" style="shape=module;align=left;spacingLeft=20;align=center;verticalAlign=middle;fontSize=16;fillColor=#d80073;strokeColor=#A50040;fontColor=#ffffff;" parent="1" vertex="1">
          <mxGeometry x="60" y="415" width="100" height="50" as="geometry" />
        </mxCell>
        <mxCell id="uHbOej7GVt9hgyqqJOEO-24" value="cache" style="shape=module;align=left;spacingLeft=20;align=center;verticalAlign=middle;fontSize=16;fillColor=#d80073;strokeColor=#A50040;fontColor=#ffffff;" parent="1" vertex="1">
          <mxGeometry x="179.5" y="415" width="100" height="50" as="geometry" />
        </mxCell>
        <mxCell id="uHbOej7GVt9hgyqqJOEO-25" value="config" style="shape=module;align=left;spacingLeft=20;align=center;verticalAlign=middle;fontSize=16;fillColor=#d80073;strokeColor=#A50040;fontColor=#ffffff;" parent="1" vertex="1">
          <mxGeometry x="299.5" y="350" width="100" height="50" as="geometry" />
        </mxCell>
        <mxCell id="uHbOej7GVt9hgyqqJOEO-26" value="coreUtils" style="shape=module;align=left;spacingLeft=20;align=center;verticalAlign=middle;fontSize=16;fillColor=#d80073;strokeColor=#A50040;fontColor=#ffffff;" parent="1" vertex="1">
          <mxGeometry x="299.5" y="415" width="100" height="50" as="geometry" />
        </mxCell>
        <mxCell id="uHbOej7GVt9hgyqqJOEO-27" value="database" style="shape=module;align=left;spacingLeft=20;align=center;verticalAlign=middle;fontSize=16;fillColor=#d80073;strokeColor=#A50040;fontColor=#ffffff;" parent="1" vertex="1">
          <mxGeometry x="419.5" y="350" width="100" height="50" as="geometry" />
        </mxCell>
        <mxCell id="uHbOej7GVt9hgyqqJOEO-28" value="exception" style="shape=module;align=left;spacingLeft=20;align=center;verticalAlign=middle;fontSize=16;fillColor=#d80073;strokeColor=#A50040;fontColor=#ffffff;" parent="1" vertex="1">
          <mxGeometry x="419.5" y="415" width="100" height="50" as="geometry" />
        </mxCell>
        <mxCell id="uHbOej7GVt9hgyqqJOEO-29" value="logger" style="shape=module;align=left;spacingLeft=20;align=center;verticalAlign=middle;fontSize=16;fillColor=#d80073;strokeColor=#A50040;fontColor=#ffffff;" parent="1" vertex="1">
          <mxGeometry x="539.5" y="350" width="100" height="50" as="geometry" />
        </mxCell>
        <mxCell id="uHbOej7GVt9hgyqqJOEO-30" value="security" style="shape=module;align=left;spacingLeft=20;align=center;verticalAlign=middle;fontSize=16;fillColor=#d80073;strokeColor=#A50040;fontColor=#ffffff;" parent="1" vertex="1">
          <mxGeometry x="539.5" y="415" width="100" height="50" as="geometry" />
        </mxCell>
        <mxCell id="uHbOej7GVt9hgyqqJOEO-31" value="route" style="shape=module;align=left;spacingLeft=20;align=center;verticalAlign=middle;fontSize=16;fillColor=#d80073;strokeColor=#A50040;fontColor=#ffffff;" parent="1" vertex="1">
          <mxGeometry x="659.5" y="350" width="100" height="50" as="geometry" />
        </mxCell>
        <mxCell id="uHbOej7GVt9hgyqqJOEO-59" value="route" style="shape=module;align=left;spacingLeft=20;align=center;verticalAlign=middle;fontSize=16;fillColor=#d80073;strokeColor=#A50040;fontColor=#ffffff;" parent="1" vertex="1">
          <mxGeometry x="539.5" y="560" width="100" height="50" as="geometry" />
        </mxCell>
        <mxCell id="uHbOej7GVt9hgyqqJOEO-61" value="coreLibrary" style="swimlane;fontSize=16;html=0;fillColor=#e51400;strokeColor=#B20000;fontColor=#ffffff;" parent="1" vertex="1">
          <mxGeometry x="40" y="250" width="740" height="770" as="geometry">
            <mxRectangle x="40" y="260" width="120" height="23" as="alternateBounds" />
          </mxGeometry>
        </mxCell>
        <mxCell id="0koI7Cu4ySrxAeqzAQIi-10" value="urils" style="shape=module;align=left;spacingLeft=20;align=center;verticalAlign=middle;fontSize=16;fillColor=#d80073;strokeColor=#A50040;fontColor=#ffffff;" parent="uHbOej7GVt9hgyqqJOEO-61" vertex="1">
          <mxGeometry x="620" y="165" width="100" height="50" as="geometry" />
        </mxCell>
        <mxCell id="uHbOej7GVt9hgyqqJOEO-143" value="&lt;span style=&quot;font-weight: 700&quot;&gt;核心组件库&lt;/span&gt;" style="text;html=1;strokeColor=none;fillColor=none;align=center;verticalAlign=middle;whiteSpace=wrap;rounded=0;fontSize=16;fontColor=#000000;" parent="1" vertex="1">
          <mxGeometry x="40" y="220" width="90" height="20" as="geometry" />
        </mxCell>
        <mxCell id="uHbOej7GVt9hgyqqJOEO-144" value="升级&lt;ul class=&quot;word-list&quot; id=&quot;etcTransUL&quot; style=&quot;padding: 0px ; margin: -16px 0px -4px ; list-style: none ; font-family: &amp;#34;stheiti&amp;#34; ; font-size: 13px&quot;&gt;&lt;li style=&quot;line-height: 20px ; margin-bottom: 6px&quot;&gt;&lt;br&gt;&lt;/li&gt;&lt;/ul&gt;" style="shape=umlFrame;whiteSpace=wrap;html=1;fontSize=16;fontColor=#ffffff;width=120;height=30;fillColor=#008a00;strokeColor=#005700;" parent="1" vertex="1">
          <mxGeometry x="49.5" y="2340" width="229.5" height="170" as="geometry" />
        </mxCell>
        <mxCell id="PPBr_-F9Wo5qHncoaiO5-3" value="model" style="shape=module;align=left;spacingLeft=20;align=center;verticalAlign=middle;fontSize=16;fontColor=#ffffff;html=0;fillColor=#60a917;strokeColor=#2D7600;" parent="1" vertex="1">
          <mxGeometry x="59.25" y="2380" width="100" height="50" as="geometry" />
        </mxCell>
        <mxCell id="PPBr_-F9Wo5qHncoaiO5-4" value="presenter" style="shape=module;align=left;spacingLeft=20;align=center;verticalAlign=middle;fontSize=16;fontColor=#ffffff;html=0;fillColor=#60a917;strokeColor=#2D7600;" parent="1" vertex="1">
          <mxGeometry x="59.25" y="2450" width="100" height="50" as="geometry" />
        </mxCell>
        <mxCell id="PPBr_-F9Wo5qHncoaiO5-5" value="view" style="shape=module;align=left;spacingLeft=20;align=center;verticalAlign=middle;fontSize=16;fontColor=#ffffff;html=0;fillColor=#60a917;strokeColor=#2D7600;" parent="1" vertex="1">
          <mxGeometry x="169.25" y="2380" width="100" height="50" as="geometry" />
        </mxCell>
        <mxCell id="PPBr_-F9Wo5qHncoaiO5-6" value="营销插件" style="shape=umlFrame;whiteSpace=wrap;html=1;fontSize=16;fontColor=#ffffff;width=90;height=30;strokeColor=#005700;fillColor=#FFD966;" parent="1" vertex="1">
          <mxGeometry x="290" y="2340" width="470" height="170" as="geometry" />
        </mxCell>
        <mxCell id="PPBr_-F9Wo5qHncoaiO5-7" value="签到" style="shape=module;align=left;spacingLeft=20;align=center;verticalAlign=middle;fillColor=#60a917;strokeColor=#2D7600;fontColor=#ffffff;fontSize=16;" parent="1" vertex="1">
          <mxGeometry x="301" y="2380" width="100" height="50" as="geometry" />
        </mxCell>
        <mxCell id="PPBr_-F9Wo5qHncoaiO5-8" value="在线礼包" style="shape=module;align=left;spacingLeft=20;align=center;verticalAlign=middle;fillColor=#60a917;strokeColor=#2D7600;fontColor=#ffffff;fontSize=16;" parent="1" vertex="1">
          <mxGeometry x="414" y="2380" width="100" height="50" as="geometry" />
        </mxCell>
        <mxCell id="PPBr_-F9Wo5qHncoaiO5-9" value="红包答题" style="shape=module;align=left;spacingLeft=20;align=center;verticalAlign=middle;fillColor=#60a917;strokeColor=#2D7600;fontColor=#ffffff;fontSize=16;" parent="1" vertex="1">
          <mxGeometry x="530" y="2380" width="100" height="50" as="geometry" />
        </mxCell>
        <mxCell id="PPBr_-F9Wo5qHncoaiO5-10" value="抽奖" style="shape=module;align=left;spacingLeft=20;align=center;verticalAlign=middle;fillColor=#60a917;strokeColor=#2D7600;fontColor=#ffffff;fontSize=16;" parent="1" vertex="1">
          <mxGeometry x="650" y="2380" width="100" height="50" as="geometry" />
        </mxCell>
        <mxCell id="PPBr_-F9Wo5qHncoaiO5-11" value="投票" style="shape=module;align=left;spacingLeft=20;align=center;verticalAlign=middle;fillColor=#60a917;strokeColor=#2D7600;fontColor=#ffffff;fontSize=16;" parent="1" vertex="1">
          <mxGeometry x="301" y="2440" width="100" height="50" as="geometry" />
        </mxCell>
        <mxCell id="PPBr_-F9Wo5qHncoaiO5-12" value="调查问卷" style="shape=module;align=left;spacingLeft=20;align=center;verticalAlign=middle;fillColor=#60a917;strokeColor=#2D7600;fontColor=#ffffff;fontSize=16;" parent="1" vertex="1">
          <mxGeometry x="414" y="2440" width="100" height="50" as="geometry" />
        </mxCell>
        <mxCell id="PPBr_-F9Wo5qHncoaiO5-13" value="邀约大赛" style="shape=module;align=left;spacingLeft=20;align=center;verticalAlign=middle;fillColor=#60a917;strokeColor=#2D7600;fontColor=#ffffff;fontSize=16;" parent="1" vertex="1">
          <mxGeometry x="531" y="2440" width="100" height="50" as="geometry" />
        </mxCell>
        <mxCell id="0koI7Cu4ySrxAeqzAQIi-11" value="user" style="shape=module;align=left;spacingLeft=20;align=center;verticalAlign=middle;fontSize=16;fillColor=#d80073;strokeColor=#A50040;fontColor=#ffffff;" parent="1" vertex="1">
          <mxGeometry x="489.75" y="900" width="120" height="50" as="geometry" />
        </mxCell>
        <mxCell id="9GPpVdWLE1Hz2scIz-TB-2" value="library" style="shape=umlFrame;whiteSpace=wrap;html=1;fontSize=16;width=60;height=25;fillColor=#a20025;strokeColor=#6F0000;fontColor=#ffffff;" parent="1" vertex="1">
          <mxGeometry x="60" y="620" width="240" height="100" as="geometry" />
        </mxCell>
        <mxCell id="9GPpVdWLE1Hz2scIz-TB-4" value="widgets" style="swimlane;fontColor=#FFFFFF;startSize=30;fontSize=16;fillColor=#0050EF;" parent="1" vertex="1">
          <mxGeometry x="39.25" y="1660" width="360" height="230" as="geometry" />
        </mxCell>
        <mxCell id="PPBr_-F9Wo5qHncoaiO5-20" value="animation" style="shape=module;align=left;spacingLeft=20;align=center;verticalAlign=middle;fontSize=16;strokeColor=#2D7600;fontColor=#ffffff;fillColor=#1BA1E2;" parent="1" vertex="1">
          <mxGeometry x="49.5" y="1700" width="100" height="50" as="geometry" />
        </mxCell>
        <mxCell id="PPBr_-F9Wo5qHncoaiO5-21" value="dialog" style="shape=module;align=left;spacingLeft=20;align=center;verticalAlign=middle;fontSize=16;strokeColor=#2D7600;fontColor=#ffffff;fillColor=#1BA1E2;" parent="1" vertex="1">
          <mxGeometry x="158.5" y="1700" width="100" height="50" as="geometry" />
        </mxCell>
        <mxCell id="PPBr_-F9Wo5qHncoaiO5-22" value="emoji" style="shape=module;align=left;spacingLeft=20;align=center;verticalAlign=middle;fontSize=16;strokeColor=#2D7600;fontColor=#ffffff;fillColor=#1BA1E2;" parent="1" vertex="1">
          <mxGeometry x="273.5" y="1700" width="100" height="50" as="geometry" />
        </mxCell>
        <mxCell id="PPBr_-F9Wo5qHncoaiO5-24" value="loading" style="shape=module;align=left;spacingLeft=20;align=center;verticalAlign=middle;fontSize=16;strokeColor=#2D7600;fontColor=#ffffff;fillColor=#1BA1E2;" parent="1" vertex="1">
          <mxGeometry x="273" y="1759" width="100" height="50" as="geometry" />
        </mxCell>
        <mxCell id="PPBr_-F9Wo5qHncoaiO5-25" value="indicator" style="shape=module;align=left;spacingLeft=20;align=center;verticalAlign=middle;fontSize=16;strokeColor=#2D7600;fontColor=#ffffff;fillColor=#1BA1E2;" parent="1" vertex="1">
          <mxGeometry x="49" y="1822" width="100" height="50" as="geometry" />
        </mxCell>
        <mxCell id="PPBr_-F9Wo5qHncoaiO5-26" value="statusView" style="shape=module;align=left;spacingLeft=20;align=center;verticalAlign=middle;fontSize=16;strokeColor=#2D7600;fontColor=#ffffff;fillColor=#1BA1E2;" parent="1" vertex="1">
          <mxGeometry x="49" y="1760" width="100" height="50" as="geometry" />
        </mxCell>
        <mxCell id="PPBr_-F9Wo5qHncoaiO5-27" value="webview" style="shape=module;align=left;spacingLeft=20;align=center;verticalAlign=middle;fontSize=16;strokeColor=#2D7600;fontColor=#ffffff;fillColor=#1BA1E2;" parent="1" vertex="1">
          <mxGeometry x="159.5" y="1760" width="100" height="50" as="geometry" />
        </mxCell>
        <mxCell id="9GPpVdWLE1Hz2scIz-TB-1" value="pullrefresh" style="shape=module;align=left;spacingLeft=20;align=center;verticalAlign=middle;fontSize=16;strokeColor=#2D7600;fontColor=#ffffff;fillColor=#1BA1E2;" parent="1" vertex="1">
          <mxGeometry x="161.5" y="1821" width="100" height="50" as="geometry" />
        </mxCell>
        <mxCell id="PPBr_-F9Wo5qHncoaiO5-30" value="定位" style="shape=module;align=left;spacingLeft=20;align=center;verticalAlign=middle;fontSize=16;strokeColor=#2D7600;fontColor=#ffffff;fillColor=#1BA1E2;" parent="1" vertex="1">
          <mxGeometry x="433.5" y="1689" width="100" height="50" as="geometry" />
        </mxCell>
        <mxCell id="PPBr_-F9Wo5qHncoaiO5-31" value="消息推送" style="shape=module;align=left;spacingLeft=20;align=center;verticalAlign=middle;fontSize=16;strokeColor=#2D7600;fontColor=#ffffff;fillColor=#1BA1E2;" parent="1" vertex="1">
          <mxGeometry x="433.5" y="1759" width="100" height="50" as="geometry" />
        </mxCell>
        <mxCell id="0koI7Cu4ySrxAeqzAQIi-1" value="友盟" style="shape=module;align=left;spacingLeft=20;align=center;verticalAlign=middle;fontSize=16;strokeColor=#2D7600;fontColor=#ffffff;fillColor=#1BA1E2;" parent="1" vertex="1">
          <mxGeometry x="548.5" y="1689" width="100" height="50" as="geometry" />
        </mxCell>
        <mxCell id="0koI7Cu4ySrxAeqzAQIi-2" value="bugly" style="shape=module;align=left;spacingLeft=20;align=center;verticalAlign=middle;fontSize=16;strokeColor=#2D7600;fontColor=#ffffff;fillColor=#1BA1E2;" parent="1" vertex="1">
          <mxGeometry x="548.5" y="1759" width="100" height="50" as="geometry" />
        </mxCell>
        <mxCell id="0koI7Cu4ySrxAeqzAQIi-3" value="粒子动画" style="shape=module;align=left;spacingLeft=20;align=center;verticalAlign=middle;fontSize=16;strokeColor=#2D7600;fontColor=#ffffff;fillColor=#1BA1E2;" parent="1" vertex="1">
          <mxGeometry x="659.5" y="1689" width="100" height="50" as="geometry" />
        </mxCell>
        <mxCell id="0koI7Cu4ySrxAeqzAQIi-4" value="热修复" style="shape=module;align=left;spacingLeft=20;align=center;verticalAlign=middle;fontSize=16;strokeColor=#2D7600;fontColor=#ffffff;fillColor=#1BA1E2;" parent="1" vertex="1">
          <mxGeometry x="659.5" y="1759" width="100" height="50" as="geometry" />
        </mxCell>
        <mxCell id="0koI7Cu4ySrxAeqzAQIi-5" value="权限处理" style="shape=module;align=left;spacingLeft=20;align=center;verticalAlign=middle;fontSize=16;strokeColor=#2D7600;fontColor=#ffffff;fillColor=#1BA1E2;" parent="1" vertex="1">
          <mxGeometry x="434" y="1829" width="100" height="50" as="geometry" />
        </mxCell>
        <mxCell id="0koI7Cu4ySrxAeqzAQIi-6" value="声网" style="shape=module;align=left;spacingLeft=20;align=center;verticalAlign=middle;fontSize=16;strokeColor=#2D7600;fontColor=#ffffff;fillColor=#1BA1E2;" parent="1" vertex="1">
          <mxGeometry x="658" y="1829" width="100" height="50" as="geometry" />
        </mxCell>
        <mxCell id="0koI7Cu4ySrxAeqzAQIi-7" value="百川" style="shape=module;align=left;spacingLeft=20;align=center;verticalAlign=middle;fontSize=16;strokeColor=#2D7600;fontColor=#ffffff;fillColor=#1BA1E2;" parent="1" vertex="1">
          <mxGeometry x="549" y="1829" width="100" height="50" as="geometry" />
        </mxCell>
        <mxCell id="9GPpVdWLE1Hz2scIz-TB-6" value="三方封装" style="swimlane;fillColor=#0050EF;fontSize=16;fontColor=#FFFFFF;" parent="1" vertex="1">
          <mxGeometry x="420.25" y="1650" width="350" height="240" as="geometry" />
        </mxCell>
        <mxCell id="9GPpVdWLE1Hz2scIz-TB-3" value="utils" style="shape=module;align=left;spacingLeft=20;align=center;verticalAlign=middle;fontSize=16;html=0;fillColor=#d80073;strokeColor=#A50040;fontColor=#ffffff;" parent="1" vertex="1">
          <mxGeometry x="183.5" y="655" width="100" height="50" as="geometry" />
        </mxCell>
        <mxCell id="9GPpVdWLE1Hz2scIz-TB-9" value="utils" style="shape=module;align=left;spacingLeft=20;align=center;verticalAlign=middle;fontSize=16;html=0;fillColor=#d80073;strokeColor=#A50040;fontColor=#ffffff;" parent="1" vertex="1">
          <mxGeometry x="68.75" y="655" width="100" height="50" as="geometry" />
        </mxCell>
      </root>
    </mxGraphModel>
  </diagram>
</mxfile>
